<svg width="16" height="16" viewBox="0 0 16 16" fill="none" xmlns="http://www.w3.org/2000/svg">
<path d="M2.66667 8.66667C2.11112 8.66667 1.63889 8.47222 1.25001 8.08333C0.861116 7.69445 0.666672 7.22222 0.666672 6.66667C0.666672 6.11111 0.861116 5.63889 1.25001 5.25C1.63889 4.86111 2.11112 4.66667 2.66667 4.66667C3.22223 4.66667 3.69445 4.86111 4.08334 5.25C4.47223 5.63889 4.66667 6.11111 4.66667 6.66667C4.66667 7.22222 4.47223 7.69445 4.08334 8.08333C3.69445 8.47222 3.22223 8.66667 2.66667 8.66667ZM1.33334 12.6667V11.3333H14.6667V12.6667H1.33334ZM6.58334 8.08333C6.19445 7.69445 6.00001 7.22222 6.00001 6.66667C6.00001 6.11111 6.19445 5.63889 6.58334 5.25C6.97223 4.86111 7.44445 4.66667 8.00001 4.66667C8.55556 4.66667 9.02778 4.86111 9.41667 5.25C9.80556 5.63889 10 6.11111 10 6.66667C10 7.22222 9.80556 7.69445 9.41667 8.08333C9.02778 8.47222 8.55556 8.66667 8.00001 8.66667C7.44445 8.66667 6.97223 8.47222 6.58334 8.08333ZM11.9167 8.08333C11.5278 7.69445 11.3333 7.22222 11.3333 6.66667C11.3333 6.11111 11.5278 5.63889 11.9167 5.25C12.3056 4.86111 12.7778 4.66667 13.3333 4.66667C13.8889 4.66667 14.3611 4.86111 14.75 5.25C15.1389 5.63889 15.3333 6.11111 15.3333 6.66667C15.3333 7.22222 15.1389 7.69445 14.75 8.08333C14.3611 8.47222 13.8889 8.66667 13.3333 8.66667C12.7778 8.66667 12.3056 8.47222 11.9167 8.08333Z" fill="currentColor"/>
</svg>
