<svg width="16" height="16" viewBox="0 0 16 16" fill="none" xmlns="http://www.w3.org/2000/svg">
<path d="M2.66667 8.66667C2.11112 8.66667 1.63889 8.47222 1.25001 8.08333C0.861116 7.69444 0.666672 7.22222 0.666672 6.66667C0.666672 6.11111 0.861116 5.63889 1.25001 5.25C1.63889 4.86111 2.11112 4.66666 2.66667 4.66666C3.22223 4.66666 3.69445 4.86111 4.08334 5.25C4.47223 5.63889 4.66667 6.11111 4.66667 6.66667C4.66667 7.22222 4.47223 7.69444 4.08334 8.08333C3.69445 8.47222 3.22223 8.66667 2.66667 8.66667ZM13.3333 8.66667C12.7778 8.66667 12.3056 8.47222 11.9167 8.08333C11.5278 7.69444 11.3333 7.22222 11.3333 6.66667C11.3333 6.11111 11.5278 5.63889 11.9167 5.25C12.3056 4.86111 12.7778 4.66666 13.3333 4.66666C13.8889 4.66666 14.3611 4.86111 14.75 5.25C15.1389 5.63889 15.3333 6.11111 15.3333 6.66667C15.3333 7.22222 15.1389 7.69444 14.75 8.08333C14.3611 8.47222 13.8889 8.66667 13.3333 8.66667ZM9.66667 7.76666L6.90001 5C7.05556 4.88889 7.22778 4.80555 7.41667 4.75C7.60556 4.69444 7.80001 4.66666 8.00001 4.66666C8.55556 4.66666 9.02778 4.86111 9.41667 5.25C9.80556 5.63889 10 6.11111 10 6.66667C10 6.86666 9.97223 7.06111 9.91667 7.25C9.86112 7.43889 9.77778 7.61111 9.66667 7.76666ZM13.2 15.0667L10.8 12.6667H1.33334V11.3333H9.46667L0.933338 2.8L1.86667 1.86666L14.1333 14.1333L13.2 15.0667Z" fill="currentColor"/>
</svg>
